<svg width="16" height="20" viewBox="0 0 16 20" fill="none" xmlns="http://www.w3.org/2000/svg">
<path d="M11.5 2V2.5H12H13C13.663 2.5 14.2989 2.76339 14.7678 3.23223C15.2366 3.70107 15.5 4.33696 15.5 5V17C15.5 17.663 15.2366 18.2989 14.7678 18.7678C14.2989 19.2366 13.663 19.5 13 19.5H3C2.33696 19.5 1.70107 19.2366 1.23223 18.7678C0.763392 18.2989 0.5 17.663 0.5 17V5C0.5 4.33696 0.763392 3.70107 1.23223 3.23223C1.70107 2.76339 2.33696 2.5 3 2.5H4H4.5V2C4.5 1.60218 4.65804 1.22064 4.93934 0.93934C5.22064 0.658035 5.60218 0.5 6 0.5H10C10.3978 0.5 10.7794 0.658035 11.0607 0.93934C11.342 1.22064 11.5 1.60218 11.5 2ZM6 1.5H5.5V2V4V4.5H6H10H10.5V4V3V2V1.5H10H6ZM4.5 4V3.5H4H3C2.60217 3.5 2.22064 3.65804 1.93934 3.93934C1.65804 4.22064 1.5 4.60217 1.5 5V17C1.5 17.3978 1.65804 17.7794 1.93934 18.0607C2.22065 18.342 2.60218 18.5 3 18.5H13C13.3978 18.5 13.7794 18.342 14.0607 18.0607C14.342 17.7794 14.5 17.3978 14.5 17V5C14.5 4.60218 14.342 4.22065 14.0607 3.93934C13.7794 3.65804 13.3978 3.5 13 3.5H12H11.5V4C11.5 4.39782 11.342 4.77936 11.0607 5.06066C10.7794 5.34196 10.3978 5.5 10 5.5H6C5.60218 5.5 5.22064 5.34196 4.93934 5.06066C4.65804 4.77936 4.5 4.39782 4.5 4Z" fill="white" stroke="#DCE0EC"/>
</svg>
