<svg width="20" height="20" viewBox="0 0 20 20" fill="none" xmlns="http://www.w3.org/2000/svg">
        <path d="M10.5 9V9.5H11H13C13.1326 9.5 13.2598 9.55268 13.3536 9.64645C13.4473 9.74022 13.5 9.86739 13.5 10C13.5 10.1326 13.4473 10.2598 13.3536 10.3536C13.2598 10.4473 13.1326 10.5 13 10.5H10C9.8674 10.5 9.74022 10.4473 9.64645 10.3536C9.55268 10.2598 9.5 10.1326 9.5 10V5C9.5 4.86739 9.55268 4.74022 9.64645 4.64645C9.74022 4.55268 9.8674 4.5 10 4.5C10.1326 4.5 10.2598 4.55268 10.3536 4.64645C10.4473 4.74022 10.5 4.86739 10.5 5V9ZM4.72209 2.10104C6.28435 1.05717 8.12108 0.5 10 0.5C11.2476 0.5 12.4829 0.745725 13.6355 1.22314C14.7881 1.70056 15.8354 2.40033 16.7175 3.28249C17.5997 4.16464 18.2994 5.21191 18.7769 6.36451C19.2543 7.5171 19.5 8.75244 19.5 10C19.5 11.8789 18.9428 13.7157 17.899 15.2779C16.8551 16.8402 15.3714 18.0578 13.6355 18.7769C11.8996 19.4959 9.98947 19.684 8.14665 19.3175C6.30383 18.9509 4.61109 18.0461 3.28249 16.7175C1.95389 15.3889 1.0491 13.6962 0.682544 11.8534C0.315985 10.0105 0.504116 8.1004 1.22315 6.36451C1.94218 4.62861 3.15982 3.14491 4.72209 2.10104ZM5.27766 17.0675C6.67548 18.0015 8.31886 18.5 10 18.5C12.2543 18.5 14.4164 17.6045 16.0104 16.0104C17.6045 14.4163 18.5 12.2543 18.5 10C18.5 8.31886 18.0015 6.67547 17.0675 5.27765C16.1335 3.87984 14.806 2.79037 13.2528 2.14702C11.6996 1.50368 9.99058 1.33535 8.34174 1.66333C6.6929 1.9913 5.17834 2.80085 3.9896 3.98959C2.80085 5.17834 1.9913 6.69289 1.66333 8.34173C1.33536 9.99057 1.50368 11.6996 2.14703 13.2528C2.79037 14.806 3.87984 16.1335 5.27766 17.0675Z" fill="white" stroke="#DCE0EC"/>
    </svg>


