<svg width="120" height="120" viewBox="0 0 120 120" fill="none" xmlns="http://www.w3.org/2000/svg">
        <g clipPath="url(#clip0_7:1530)">
            <path d="M26.4335 119.999H93.5675C99.9627 119.999 105.242 114.992 105.242 108.835V27.4075C105.242 21.2514 99.9627 16.2096 93.5675 16.2096H82.9838V9.91643C82.9886 9.27662 82.7381 8.66234 82.2883 8.20871C81.8375 7.75508 81.2251 7.50086 80.5862 7.49992H71.3445C69.5206 3.14509 64.9815 -5.61677e-05 59.8763 -5.61677e-05H59.8375C54.8703 -0.0416387 50.369 2.92111 48.443 7.49992H39.2835C37.9302 7.49141 36.8169 8.56405 36.7743 9.91643V16.2096H26.4335C20.0383 16.2096 14.7583 21.2514 14.7583 27.4075V108.835C14.7583 114.992 20.0383 119.999 26.4335 119.999ZM41.613 12.3386H50.1658C51.2696 12.3386 52.2336 11.5911 52.5086 10.5213C53.3695 7.17387 56.389 4.8358 59.8451 4.83863H59.8696C63.4221 4.83863 66.5077 7.19088 67.208 10.4277C67.4481 11.5419 68.4328 12.3377 69.5725 12.3386H78.1452V24.4353H41.613V12.3386ZM19.597 27.4075C19.597 23.9193 22.7062 21.0483 26.4335 21.0483H36.7743V26.7829C36.8103 28.1504 37.915 29.2476 39.2835 29.274H80.5862C81.932 29.2381 82.9999 28.1286 82.9838 26.7829V21.0483H93.5675C97.2939 21.0483 100.403 23.9193 100.403 27.4075V108.835C100.403 112.324 97.2939 115.161 93.5675 115.161H26.4335C22.7062 115.161 19.597 112.324 19.597 108.835V27.4075Z" fill="#DCE0EC"/>
            <path d="M42.1593 90.9674H77.842C79.1783 90.9674 80.2614 89.8843 80.2614 88.548C80.2614 87.2126 79.1783 86.1287 77.842 86.1287H42.1593C40.823 86.1287 39.74 87.2126 39.74 88.548C39.74 89.8843 40.823 90.9674 42.1593 90.9674Z" fill="#DCE0EC"/>
            <path d="M34.901 100.645H85.0998C86.4361 100.645 87.5192 99.5618 87.5192 98.2255C87.5192 96.8901 86.4361 95.8062 85.0998 95.8062H34.901C33.5647 95.8062 32.4817 96.8901 32.4817 98.2255C32.4817 99.5618 33.5647 100.645 34.901 100.645Z" fill="#DCE0EC"/>
            <path d="M43.3066 65.3224H52.742V74.7579C52.742 76.0942 53.8251 77.1772 55.1614 77.1772H64.8388C66.1751 77.1772 67.2582 76.0942 67.2582 74.7579V65.3224H76.6937C78.03 65.3224 79.113 64.2393 79.113 62.903V53.2256C79.113 51.8902 78.03 50.8063 76.6937 50.8063H67.2582V41.3708C67.2582 40.0354 66.1751 38.9514 64.8388 38.9514H55.1614C53.8251 38.9514 52.742 40.0354 52.742 41.3708V50.8063H43.3066C41.9702 50.8063 40.8872 51.8902 40.8872 53.2256V62.903C40.8872 64.2393 41.9702 65.3224 43.3066 65.3224ZM45.7259 55.645H55.1614C56.4977 55.645 57.5808 54.5619 57.5808 53.2256V43.7901H62.4195V53.2256C62.4195 54.5619 63.5025 55.645 64.8388 55.645H74.2743V60.4837H64.8388C63.5025 60.4837 62.4195 61.5677 62.4195 62.903V72.3385H57.5808V62.903C57.5808 61.5677 56.4977 60.4837 55.1614 60.4837H45.7259V55.645Z" fill="#DCE0EC"/>
        </g>
        <defs>
            <clipPath id="clip0_7:1530">
            <rect width="120" height="120" fill="white"/>
        </clipPath>
        </defs>
    </svg>


