<svg width="132" height="32" viewBox="0 0 132 32" fill="none" xmlns="http://www.w3.org/2000/svg">
    <path d="M21.6389 20.3436C20.0798 22.3721 17.4396 23.2755 14.9263 22.8483C12.1752 22.3813 9.91074 20.251 9.28809 17.549C9.84829 20.7099 11.5833 23.542 14.1449 25.4768C15.7695 26.6993 17.6608 27.5191 19.6636 27.8689C21.6665 28.2188 23.7237 28.0887 25.6665 27.4894C26.1936 27.3265 26.7098 27.1304 27.2121 26.9023C27.4309 26.8024 27.646 26.6958 27.8593 26.5842C28.0517 26.4819 28.39 26.3636 28.5334 26.1987L21.762 20.4453L21.6389 20.3436Z" fill="url(#paint0_linear_5081_2641)"/>
    <path d="M10.569 4.48178C7.08372 4.36963 3.98332 5.5322 2.25753 7.82671C0.367638 10.9866 -0.368708 14.7039 0.17384 18.3457C0.871264 23.0505 3.63277 27.0886 7.51578 29.5259C5.21024 26.3495 5.17102 22.6577 5.39777 20.7339C6.07191 15.0062 9.7723 12.3103 10.4844 11.8629C11.0775 11.0715 11.8309 10.414 12.6953 9.93335C13.5597 9.45273 14.5158 9.15981 15.5011 9.0737C16.4864 8.98758 17.4788 9.11022 18.4135 9.4336C19.3481 9.75697 20.2041 10.2738 20.9255 10.9504L20.9482 10.9314C18.7352 7.36769 15.0949 4.62641 10.569 4.48178Z" fill="url(#paint1_linear_5081_2641)"/>
    <path d="M16.1151 2.69227e-05C13.3257 -0.00473979 10.5827 0.713829 8.15389 2.08559C5.72508 3.45735 3.69346 5.43543 2.25732 7.82673C3.98311 5.53222 7.08352 4.36965 10.5688 4.4818C15.0947 4.62643 18.735 7.36771 20.9505 10.9314L27.8689 5.05359C26.3581 3.45398 24.536 2.18045 22.5146 1.31136C20.4932 0.442272 18.3154 -0.00399333 16.1151 2.69227e-05Z" fill="url(#paint2_linear_5081_2641)"/>
    <path d="M27.9366 26.5407C25.1009 28.0686 21.6898 28.4589 18.5747 27.631C15.7034 26.8628 13.1864 25.1247 11.4509 22.7116C9.25939 19.6474 8.05391 15.1209 10.4869 11.8642C9.77235 12.3116 6.07441 15.0075 5.40027 20.7352C5.17536 22.6448 5.21336 26.295 7.46558 29.4542C8.14707 30.0248 9.01976 30.3888 9.8275 30.7296C12.914 32.0301 16.3279 32.3414 19.5988 31.6206C22.8696 30.8998 25.8365 29.1824 28.0904 26.705C28.2383 26.5415 28.3826 26.3761 28.5231 26.2086C28.3307 26.3238 28.1352 26.4345 27.9366 26.5407Z" fill="url(#paint3_linear_5081_2641)"/>
    <path d="M49.415 13.68C49.415 14.21 49.29 14.71 49.04 15.18C48.79 15.65 48.39 16.035 47.84 16.335C47.29 16.625 46.585 16.77 45.725 16.77H43.835V21H42.125V10.575H45.725C46.525 10.575 47.2 10.715 47.75 10.995C48.31 11.265 48.725 11.635 48.995 12.105C49.275 12.575 49.415 13.1 49.415 13.68ZM45.725 15.375C46.375 15.375 46.86 15.23 47.18 14.94C47.5 14.64 47.66 14.22 47.66 13.68C47.66 12.54 47.015 11.97 45.725 11.97H43.835V15.375H45.725Z" fill="#202225"/>
    <path d="M57.3309 18.87H52.9659L52.2159 21H50.4309L54.1659 10.56H56.1459L59.8809 21H58.0809L57.3309 18.87ZM56.8509 17.475L55.1559 12.63L53.4459 17.475H56.8509Z" fill="#202225"/>
    <path d="M63.2149 19.62H66.7399V21H61.5049V10.575H63.2149V19.62Z" fill="#202225"/>
    <path d="M79.1499 10.575V21H77.4399V13.86L74.2599 21H73.0749L69.8799 13.86V21H68.1699V10.575H70.0149L73.6749 18.75L77.3199 10.575H79.1499Z" fill="#202225"/>
    <path d="M84.7239 15.765C84.7239 14.745 84.9589 13.83 85.4289 13.02C85.9089 12.21 86.5539 11.58 87.3639 11.13C88.1839 10.67 89.0789 10.44 90.0489 10.44C91.1589 10.44 92.1439 10.715 93.0039 11.265C93.8739 11.805 94.5039 12.575 94.8939 13.575H92.8389C92.5689 13.025 92.1939 12.615 91.7139 12.345C91.2339 12.075 90.6789 11.94 90.0489 11.94C89.3589 11.94 88.7439 12.095 88.2039 12.405C87.6639 12.715 87.2389 13.16 86.9289 13.74C86.6289 14.32 86.4789 14.995 86.4789 15.765C86.4789 16.535 86.6289 17.21 86.9289 17.79C87.2389 18.37 87.6639 18.82 88.2039 19.14C88.7439 19.45 89.3589 19.605 90.0489 19.605C90.6789 19.605 91.2339 19.47 91.7139 19.2C92.1939 18.93 92.5689 18.52 92.8389 17.97H94.8939C94.5039 18.97 93.8739 19.74 93.0039 20.28C92.1439 20.82 91.1589 21.09 90.0489 21.09C89.0689 21.09 88.1739 20.865 87.3639 20.415C86.5539 19.955 85.9089 19.32 85.4289 18.51C84.9589 17.7 84.7239 16.785 84.7239 15.765Z" fill="#202225"/>
    <path d="M98.6055 19.62H102.131V21H96.8955V10.575H98.6055V19.62Z" fill="#202225"/>
    <path d="M105.271 10.575V21H103.561V10.575H105.271Z" fill="#202225"/>
    <path d="M116.081 21H114.371L109.226 13.215V21H107.516V10.56H109.226L114.371 18.33V10.56H116.081V21Z" fill="#202225"/>
    <path d="M120.036 10.575V21H118.326V10.575H120.036Z" fill="#202225"/>
    <path d="M121.711 15.765C121.711 14.745 121.946 13.83 122.416 13.02C122.896 12.21 123.541 11.58 124.351 11.13C125.171 10.67 126.066 10.44 127.036 10.44C128.146 10.44 129.131 10.715 129.991 11.265C130.861 11.805 131.491 12.575 131.881 13.575H129.826C129.556 13.025 129.181 12.615 128.701 12.345C128.221 12.075 127.666 11.94 127.036 11.94C126.346 11.94 125.731 12.095 125.191 12.405C124.651 12.715 124.226 13.16 123.916 13.74C123.616 14.32 123.466 14.995 123.466 15.765C123.466 16.535 123.616 17.21 123.916 17.79C124.226 18.37 124.651 18.82 125.191 19.14C125.731 19.45 126.346 19.605 127.036 19.605C127.666 19.605 128.221 19.47 128.701 19.2C129.181 18.93 129.556 18.52 129.826 17.97H131.881C131.491 18.97 130.861 19.74 129.991 20.28C129.131 20.82 128.146 21.09 127.036 21.09C126.056 21.09 125.161 20.865 124.351 20.415C123.541 19.955 122.896 19.32 122.416 18.51C121.946 17.7 121.711 16.785 121.711 15.765Z" fill="#202225"/>
    <defs>
        <linearGradient id="paint0_linear_5081_2641" x1="24.0222" y1="18.6417" x2="13.4775" y2="25.334" gradientUnits="userSpaceOnUse">
            <stop stop-color="#FFC6BA"/>
            <stop offset="0.49" stop-color="#E781A6"/>
            <stop offset="1" stop-color="#79578A"/>
        </linearGradient>
        <linearGradient id="paint1_linear_5081_2641" x1="4.12305" y1="19.344" x2="16.6515" y2="7.32969" gradientUnits="userSpaceOnUse">
            <stop stop-color="#FFC6BA"/>
            <stop offset="0.5" stop-color="#E781A6"/>
            <stop offset="1" stop-color="#79578A"/>
        </linearGradient>
        <linearGradient id="paint2_linear_5081_2641" x1="10.6454" y1="3.32229" x2="25.5236" y2="12.8736" gradientUnits="userSpaceOnUse">
            <stop offset="0.01" stop-color="#FFC6BA"/>
            <stop offset="0.5" stop-color="#E781A6"/>
            <stop offset="1" stop-color="#A66894"/>
        </linearGradient>
        <linearGradient id="paint3_linear_5081_2641" x1="19.4615" y1="28.4786" x2="4.41114" y2="17.2603" gradientUnits="userSpaceOnUse">
            <stop stop-color="#A66894"/>
            <stop offset="0.5" stop-color="#E781A6"/>
            <stop offset="0.99" stop-color="#FFC6BA"/>
        </linearGradient>
    </defs>
</svg>
